
<svg version="1.1" id="Слой_1" xmlns="http://www.w3.org/2000/svg" xmlns:xlink="http://www.w3.org/1999/xlink"  x="0px" y="0px"
	viewBox="0 0 23 16" style="enable-background:new 0 0 23 16;" xml:space="preserve">
<style type="text/css">
	.st0{fill:#1E1B1B;}
</style>
<path class="st0" d="M1.2,7c-0.6,0-1,0.4-1,1s0.4,1,1,1L1.2,7z M22,8.7c0.4-0.4,0.4-1,0-1.4l-6.4-6.4c-0.4-0.4-1-0.4-1.4,0
	c-0.4,0.4-0.4,1,0,1.4L19.9,8l-5.7,5.7c-0.4,0.4-0.4,1,0,1.4c0.4,0.4,1,0.4,1.4,0L22,8.7z M1.2,9l20.1,0l0-2L1.2,7L1.2,9z"/>
</svg>
