<svg width="63" height="47" viewBox="0 0 63 47" fill="currentColor" xmlns="http://www.w3.org/2000/svg">
<g filter="url(#filter0_d_482_1496)">
<path d="M57.8345 11.8573C57.5697 11.5343 57.1746 11.3457 56.7601 11.3457H51.4905C50.19 7.91585 48.4959 4.55528 46.5702 3.28675C39.9087 -1.09558 22.2394 -1.09558 15.5778 3.28675C13.6508 4.55666 11.9636 7.92139 10.6562 11.3457H5.38661C4.96793 11.3457 4.5742 11.5343 4.31217 11.8573C4.04876 12.1789 3.9434 12.6046 4.02935 13.0135L4.80988 16.7956C4.94297 17.4402 5.51139 17.9005 6.16714 17.9005H7.7282C6.22121 19.639 5.49059 21.8281 5.48089 24.0186C5.47118 26.7248 6.49848 29.1703 8.37702 30.9005C8.39782 30.9186 8.41861 30.931 8.43802 30.9491V36.2408C8.43802 37.3874 9.36966 38.3204 10.5176 38.3204H15.3782C16.5261 38.3204 17.4578 37.3874 17.4578 36.2408V34.1141H44.6875V36.2408C44.6875 37.3874 45.6192 38.3204 46.7671 38.3204H51.6277C52.7729 38.3204 53.7073 37.3874 53.7073 36.2408V31.053C55.7009 29.2272 56.6533 26.7151 56.6658 24.2071C56.6741 21.9418 55.9102 19.6723 54.3145 17.8977H55.9795C56.6381 17.8977 57.2065 17.4375 57.3368 16.7914L58.1187 13.0108C58.1991 12.6046 58.0979 12.1817 57.8345 11.8573ZM17.8612 6.75961C23.171 3.26456 38.9743 3.26456 44.2813 6.75961C45.3128 7.43616 46.6395 10.1715 47.8554 13.521H14.2899C15.503 10.1729 16.8297 7.43893 17.8612 6.75961ZM11.6419 24.5399C11.6419 22.2801 13.4747 20.4501 15.7331 20.4501C17.9943 20.4501 19.8243 22.2801 19.8243 24.5399C19.8243 26.7996 17.9943 28.631 15.7331 28.631C13.4747 28.631 11.6419 26.7996 11.6419 24.5399ZM46.4663 28.631C44.2078 28.631 42.3751 26.7996 42.3751 24.5399C42.3751 22.2801 44.2078 20.4501 46.4663 20.4501C48.7274 20.4501 50.5574 22.2801 50.5574 24.5399C50.5574 26.7996 48.7247 28.631 46.4663 28.631Z" />
</g>
<defs>
<filter id="filter0_d_482_1496" x="0" y="0" width="62.1458" height="46.3204" filterUnits="userSpaceOnUse" color-interpolation-filters="sRGB">
<feFlood flood-opacity="0" result="BackgroundImageFix"/>
<feColorMatrix in="SourceAlpha" type="matrix" values="0 0 0 0 0 0 0 0 0 0 0 0 0 0 0 0 0 0 127 0" result="hardAlpha"/>
<feOffset dy="4"/>
<feGaussianBlur stdDeviation="2"/>
<feComposite in2="hardAlpha" operator="out"/>
<feColorMatrix type="matrix" values="0 0 0 0 0 0 0 0 0 0 0 0 0 0 0 0 0 0 0.25 0"/>
<feBlend mode="normal" in2="BackgroundImageFix" result="effect1_dropShadow_482_1496"/>
<feBlend mode="normal" in="SourceGraphic" in2="effect1_dropShadow_482_1496" result="shape"/>
</filter>
</defs>
</svg>
