<svg width="175" height="32" viewBox="0 0 175 32" fill="currentColor" xmlns="http://www.w3.org/2000/svg">
<g filter="url(#filter0_d_482_1264)">
<g clip-path="url(#clip0_482_1264)">
<path d="M28 12C28 5.37258 22.6274 0 16 0C9.37258 0 4 5.37258 4 12C4 17.9895 8.3882 22.954 14.125 23.8542V15.4688H11.0781V12H14.125V9.35625C14.125 6.34875 15.9166 4.6875 18.6576 4.6875C19.9701 4.6875 21.3438 4.92188 21.3438 4.92188V7.875H19.8306C18.34 7.875 17.875 8.80008 17.875 9.75V12H21.2031L20.6711 15.4688H17.875V23.8542C23.6118 22.954 28 17.9895 28 12Z" />
</g>
<g clip-path="url(#clip1_482_1264)">
<path d="M59.2167 21.7497C68.271 21.7497 73.2248 14.2465 73.2248 7.74162C73.2248 7.53068 73.2201 7.31505 73.2107 7.10412C74.1744 6.40722 75.006 5.54401 75.6665 4.55505C74.769 4.95436 73.8161 5.21514 72.8404 5.32849C73.8678 4.71266 74.637 3.74523 75.0056 2.60552C74.0391 3.17831 72.9821 3.58237 71.8799 3.80037C71.1373 3.01132 70.1555 2.48887 69.0862 2.31381C68.0169 2.13874 66.9197 2.32081 65.9642 2.83185C65.0088 3.3429 64.2483 4.15446 63.8004 5.14107C63.3524 6.12767 63.2419 7.23437 63.486 8.29005C61.529 8.19185 59.6144 7.68346 57.8665 6.79785C56.1185 5.91225 54.5762 4.66919 53.3395 3.14927C52.7109 4.233 52.5186 5.5154 52.8015 6.73585C53.0845 7.95629 53.8216 9.0232 54.8629 9.71974C54.0811 9.69492 53.3165 9.48444 52.6321 9.10568V9.16662C52.6314 10.3039 53.0246 11.4063 53.7448 12.2865C54.465 13.1667 55.4678 13.7703 56.5828 13.9947C55.8586 14.1929 55.0985 14.2218 54.3613 14.0791C54.676 15.0572 55.2881 15.9126 56.1123 16.5261C56.9365 17.1395 57.9316 17.4804 58.9588 17.501C57.2149 18.8709 55.0607 19.6139 52.8431 19.6104C52.4498 19.6098 52.0569 19.5857 51.6665 19.5382C53.9194 20.9835 56.54 21.7511 59.2167 21.7497Z" />
</g>
<g clip-path="url(#clip2_482_1264)">
<path d="M111.333 2.16094C114.54 2.16094 114.919 2.175 116.18 2.23125C117.352 2.28281 117.985 2.47969 118.407 2.64375C118.965 2.85938 119.368 3.12188 119.785 3.53906C120.207 3.96094 120.465 4.35938 120.68 4.91719C120.844 5.33906 121.041 5.97656 121.093 7.14375C121.149 8.40937 121.163 8.78906 121.163 11.9906C121.163 15.1969 121.149 15.5766 121.093 16.8375C121.041 18.0094 120.844 18.6422 120.68 19.0641C120.465 19.6219 120.202 20.025 119.785 20.4422C119.363 20.8641 118.965 21.1219 118.407 21.3375C117.985 21.5016 117.348 21.6984 116.18 21.75C114.915 21.8062 114.535 21.8203 111.333 21.8203C108.127 21.8203 107.748 21.8062 106.487 21.75C105.315 21.6984 104.682 21.5016 104.26 21.3375C103.702 21.1219 103.299 20.8594 102.882 20.4422C102.46 20.0203 102.202 19.6219 101.987 19.0641C101.823 18.6422 101.626 18.0047 101.574 16.8375C101.518 15.5719 101.504 15.1922 101.504 11.9906C101.504 8.78438 101.518 8.40469 101.574 7.14375C101.626 5.97187 101.823 5.33906 101.987 4.91719C102.202 4.35938 102.465 3.95625 102.882 3.53906C103.304 3.11719 103.702 2.85938 104.26 2.64375C104.682 2.47969 105.319 2.28281 106.487 2.23125C107.748 2.175 108.127 2.16094 111.333 2.16094ZM111.333 0C108.076 0 107.668 0.0140625 106.388 0.0703125C105.113 0.126563 104.237 0.332812 103.477 0.628125C102.685 0.9375 102.015 1.34531 101.349 2.01562C100.679 2.68125 100.271 3.35156 99.9616 4.13906C99.6663 4.90313 99.4601 5.775 99.4038 7.05C99.3476 8.33437 99.3335 8.74219 99.3335 12C99.3335 15.2578 99.3476 15.6656 99.4038 16.9453C99.4601 18.2203 99.6663 19.0969 99.9616 19.8563C100.271 20.6484 100.679 21.3188 101.349 21.9844C102.015 22.65 102.685 23.0625 103.473 23.3672C104.237 23.6625 105.108 23.8687 106.383 23.925C107.663 23.9812 108.071 23.9953 111.329 23.9953C114.587 23.9953 114.994 23.9812 116.274 23.925C117.549 23.8687 118.426 23.6625 119.185 23.3672C119.973 23.0625 120.643 22.65 121.308 21.9844C121.974 21.3188 122.387 20.6484 122.691 19.8609C122.987 19.0969 123.193 18.225 123.249 16.95C123.305 15.6703 123.319 15.2625 123.319 12.0047C123.319 8.74688 123.305 8.33906 123.249 7.05938C123.193 5.78438 122.987 4.90781 122.691 4.14844C122.396 3.35156 121.988 2.68125 121.318 2.01562C120.652 1.35 119.982 0.9375 119.194 0.632812C118.43 0.3375 117.558 0.13125 116.283 0.075C114.999 0.0140625 114.591 0 111.333 0Z" />
<path d="M111.333 5.83594C107.93 5.83594 105.169 8.59688 105.169 12C105.169 15.4031 107.93 18.1641 111.333 18.1641C114.737 18.1641 117.498 15.4031 117.498 12C117.498 8.59688 114.737 5.83594 111.333 5.83594ZM111.333 15.9984C109.126 15.9984 107.335 14.2078 107.335 12C107.335 9.79219 109.126 8.00156 111.333 8.00156C113.541 8.00156 115.332 9.79219 115.332 12C115.332 14.2078 113.541 15.9984 111.333 15.9984Z" />
<path d="M119.18 5.59238C119.18 6.38926 118.533 7.03145 117.741 7.03145C116.944 7.03145 116.302 6.38457 116.302 5.59238C116.302 4.79551 116.949 4.15332 117.741 4.15332C118.533 4.15332 119.18 4.8002 119.18 5.59238Z" />
</g>
<g clip-path="url(#clip3_482_1264)">
<path d="M169.223 0H148.772C147.792 0 147 0.773438 147 1.72969V22.2656C147 23.2219 147.792 24 148.772 24H169.223C170.203 24 171 23.2219 171 22.2703V1.72969C171 0.773438 170.203 0 169.223 0ZM154.12 20.4516H150.558V8.99531H154.12V20.4516ZM152.339 7.43438C151.195 7.43438 150.272 6.51094 150.272 5.37187C150.272 4.23281 151.195 3.30937 152.339 3.30937C153.478 3.30937 154.402 4.23281 154.402 5.37187C154.402 6.50625 153.478 7.43438 152.339 7.43438ZM167.452 20.4516H163.894V14.8828C163.894 13.5562 163.87 11.8453 162.042 11.8453C160.191 11.8453 159.909 13.2937 159.909 14.7891V20.4516H156.356V8.99531H159.769V10.5609H159.816C160.289 9.66094 161.452 8.70938 163.181 8.70938C166.786 8.70938 167.452 11.0813 167.452 14.1656V20.4516Z" />
</g>
</g>
<defs>
<filter id="filter0_d_482_1264" x="0" y="0" width="175" height="32" filterUnits="userSpaceOnUse" color-interpolation-filters="sRGB">
<feFlood flood-opacity="0" result="BackgroundImageFix"/>
<feColorMatrix in="SourceAlpha" type="matrix" values="0 0 0 0 0 0 0 0 0 0 0 0 0 0 0 0 0 0 127 0" result="hardAlpha"/>
<feOffset dy="4"/>
<feGaussianBlur stdDeviation="2"/>
<feComposite in2="hardAlpha" operator="out"/>
<feColorMatrix type="matrix" values="0 0 0 0 0 0 0 0 0 0 0 0 0 0 0 0 0 0 0.25 0"/>
<feBlend mode="normal" in2="BackgroundImageFix" result="effect1_dropShadow_482_1264"/>
<feBlend mode="normal" in="SourceGraphic" in2="effect1_dropShadow_482_1264" result="shape"/>
</filter>
<clipPath id="clip0_482_1264">
<rect width="24" height="24" fill="white" transform="translate(4)"/>
</clipPath>
<clipPath id="clip1_482_1264">
<rect width="24" height="24" fill="white" transform="translate(51.6665)"/>
</clipPath>
<clipPath id="clip2_482_1264">
<rect width="24" height="24" fill="white" transform="translate(99.3335)"/>
</clipPath>
<clipPath id="clip3_482_1264">
<rect width="24" height="24" fill="white" transform="translate(147)"/>
</clipPath>
</defs>
</svg>
